<?xml version="1.0" encoding="utf-8"?>
<!-- Generator: Adobe Illustrator 22.0.1, SVG Export Plug-In . SVG Version: 6.00 Build 0)  -->
<svg version="1.1" id="Layer_1" xmlns="http://www.w3.org/2000/svg" xmlns:xlink="http://www.w3.org/1999/xlink" x="0px" y="0px"
	 viewBox="0 0 150.8 75.6" style="enable-background:new 0 0 150.8 75.6;" xml:space="preserve">
<style type="text/css">
	.st0{clip-path:url(#SVGID_2_);}
	.st1{clip-path:url(#SVGID_6_);}
	.st2{clip-path:url(#SVGID_8_);fill:#CCCCCC;}
	.st3{clip-path:url(#SVGID_10_);}
	.st4{fill:#474747;}
	.st5{fill:#FFFFFF;}
	.st6{fill:#EFCD60;}
	.st7{fill:#FAFAFA;}
	.st8{fill:#97FFDC;}
	.st9{fill:#B0C466;}
</style>
<g>
	<g id="XMLID_11_">
		<polygon class="st7" points="144.1,30.1 144.1,49.1 139.9,49.1 139.9,30.1 133.1,30.1 133.1,26.7 150.8,26.7 150.8,30.1 		"/>
		<path class="st8" d="M135.2,65.2c0.2,0.1,0.4,0.3,0.5,0.5l8.1,9.9h-0.7c-0.1,0-0.2,0-0.3-0.1s-0.2-0.1-0.3-0.2l-7.7-9.4
			c-0.1-0.1-0.2-0.2-0.3-0.3c-0.1-0.1-0.2-0.1-0.3-0.2c-0.1-0.1-0.2-0.1-0.4-0.1c-0.2,0-0.3,0-0.6,0h-3.2v10.3h-0.9V53.7h5.3
			c2.4,0,4.2,0.5,5.4,1.4s1.8,2.3,1.8,4.2c0,0.9-0.2,1.6-0.5,2.3c-0.3,0.7-0.8,1.3-1.4,1.8c-0.6,0.5-1.3,0.9-2.1,1.2
			S136.2,65.2,135.2,65.2z M139.4,55.6c-1.1-0.8-2.7-1.2-4.8-1.2h-4.4v10.2h4.2c1,0,1.9-0.1,2.8-0.4c0.8-0.3,1.5-0.6,2.1-1.1
			c0.6-0.5,1-1,1.3-1.7c0.3-0.7,0.5-1.4,0.5-2.2C141,57.7,140.5,56.4,139.4,55.6z"/>
		<path class="st7" d="M123.3,9l6.2-7.9c0.3-0.3,0.5-0.6,0.8-0.7c0.3-0.1,0.6-0.2,1.1-0.2h3.6l-7.6,9.3c-0.2,0.3-0.5,0.5-0.7,0.7
			c-0.2,0.2-0.5,0.4-0.7,0.5c0.3,0.1,0.7,0.3,0.9,0.5c0.3,0.2,0.5,0.5,0.8,0.9l7.8,10.5h-3.7c-0.5,0-0.9-0.1-1.1-0.2
			c-0.3-0.1-0.5-0.3-0.6-0.6l-6.4-8.3c-0.2-0.3-0.4-0.5-0.7-0.6c-0.3-0.1-0.6-0.2-1.1-0.2h-1.3v9.9h-4.2V0.2h4.2v9.4h1
			c0.4,0,0.7-0.1,1-0.2C122.9,9.4,123.1,9.2,123.3,9z"/>
		<polygon class="st7" points="116.6,36.2 124.4,36.2 124.4,39.5 116.6,39.5 116.6,45.8 126.5,45.8 126.5,49.1 112.4,49.1 
			112.4,26.7 126.5,26.7 126.5,30 116.6,30 		"/>
		<polygon class="st8" points="106.5,75.6 106.5,53.7 119.3,53.7 119.3,54.5 107.3,54.5 107.3,64.1 117.4,64.1 117.4,64.9 
			107.3,64.9 107.3,74.9 119.4,74.9 119.3,75.6 		"/>
		<path class="st7" d="M100.2,23c-1.7,0-3.2-0.3-4.5-0.9c-1.3-0.6-2.5-1.4-3.4-2.4c-0.9-1-1.7-2.2-2.2-3.6c-0.5-1.4-0.8-2.9-0.8-4.6
			c0-1.7,0.3-3.2,0.8-4.6c0.6-1.4,1.3-2.6,2.4-3.6c1-1,2.2-1.8,3.6-2.4c1.4-0.6,3-0.9,4.7-0.9c1.7,0,3.1,0.3,4.4,0.8
			c1.2,0.5,2.3,1.2,3.2,2.1l-1.4,2c-0.1,0.1-0.2,0.2-0.3,0.3c-0.1,0.1-0.3,0.1-0.5,0.1c-0.2,0-0.5-0.1-0.7-0.3
			c-0.3-0.2-0.6-0.4-0.9-0.6c-0.4-0.2-0.9-0.4-1.5-0.6c-0.6-0.2-1.3-0.3-2.2-0.3c-1.1,0-2,0.2-2.9,0.6c-0.9,0.4-1.6,0.9-2.3,1.6
			c-0.6,0.7-1.1,1.5-1.5,2.5c-0.4,1-0.5,2.1-0.5,3.3c0,1.3,0.2,2.4,0.5,3.4c0.4,1,0.8,1.8,1.4,2.5c0.6,0.7,1.3,1.2,2.2,1.5
			c0.8,0.4,1.7,0.5,2.7,0.5c0.6,0,1.1,0,1.5-0.1c0.5-0.1,0.9-0.2,1.3-0.3c0.4-0.1,0.8-0.3,1.1-0.5c0.3-0.2,0.7-0.5,1-0.8
			c0.1-0.1,0.2-0.2,0.3-0.2c0.1-0.1,0.2-0.1,0.4-0.1c0.2,0,0.4,0.1,0.6,0.3l1.6,1.8c-0.9,1.1-2,2-3.4,2.6
			C103.7,22.7,102.1,23,100.2,23z"/>
		<path class="st7" d="M90.2,36.1h1c0.4,0,0.7-0.1,1-0.2c0.3-0.1,0.5-0.3,0.7-0.5l6.2-7.8c0.3-0.3,0.5-0.6,0.8-0.7
			c0.3-0.1,0.6-0.2,1.1-0.2h3.6L96.9,36c-0.2,0.3-0.5,0.5-0.7,0.7c-0.2,0.2-0.5,0.4-0.7,0.5c0.3,0.1,0.6,0.3,0.9,0.5
			c0.3,0.2,0.5,0.5,0.8,0.9l7.8,10.5h-3.7c-0.5,0-0.9-0.1-1.1-0.2c-0.2-0.1-0.4-0.4-0.6-0.6L93.3,40c-0.2-0.3-0.4-0.5-0.7-0.6
			c-0.3-0.1-0.6-0.2-1.1-0.2h-1.3v9.9H86V26.7h4.2V36.1z"/>
		<path class="st7" d="M75.8,22.1c-1.4,0.6-2.9,0.9-4.6,0.9c-1.7,0-3.2-0.3-4.7-0.9c-1.4-0.6-2.6-1.4-3.6-2.4c-1-1-1.8-2.2-2.3-3.6
			c-0.5-1.4-0.8-2.9-0.8-4.6c0-1.6,0.3-3.2,0.8-4.6c0.6-1.4,1.3-2.6,2.3-3.6c1-1,2.2-1.8,3.6-2.4C68,0.3,69.5,0,71.2,0
			c1.7,0,3.2,0.3,4.6,0.9c1.4,0.6,2.6,1.4,3.6,2.4s1.8,2.2,2.3,3.6c0.6,1.4,0.8,2.9,0.8,4.6c0,1.6-0.3,3.2-0.8,4.6
			c-0.6,1.4-1.3,2.6-2.3,3.6C78.4,20.7,77.2,21.5,75.8,22.1z M71.2,3.6c-1.1,0-2.1,0.2-3,0.5C67.4,4.5,66.6,5,66,5.7
			s-1.1,1.5-1.4,2.5c-0.3,1-0.5,2.1-0.5,3.3c0,1.2,0.2,2.3,0.5,3.3c0.3,1,0.8,1.8,1.4,2.5c0.6,0.7,1.4,1.2,2.2,1.6
			c0.9,0.4,1.9,0.5,3,0.5c1.1,0,2.1-0.2,3-0.5c0.9-0.4,1.6-0.9,2.2-1.6c0.6-0.7,1.1-1.5,1.4-2.5c0.3-1,0.5-2.1,0.5-3.3
			c0-1.2-0.2-2.3-0.5-3.3c-0.3-1-0.8-1.8-1.4-2.5C75.8,5,75,4.5,74.2,4.1C73.3,3.7,72.3,3.6,71.2,3.6z"/>
		<path class="st7" d="M73.4,38.6c-0.6,0.4-1.3,0.7-2.1,1c0.5,0.3,1,0.7,1.4,1.3l5.6,8.3h-3.8c-0.4,0-0.7-0.1-0.9-0.2
			c-0.3-0.1-0.5-0.4-0.6-0.6l-4.7-7.2c-0.2-0.3-0.4-0.5-0.6-0.6c-0.2-0.1-0.5-0.2-0.9-0.2H65v8.8h-4.2V26.7h6.9
			c1.5,0,2.8,0.2,3.9,0.5c1.1,0.3,2,0.8,2.7,1.3c0.7,0.6,1.2,1.2,1.5,2c0.3,0.8,0.5,1.7,0.5,2.6c0,0.8-0.1,1.5-0.3,2.1
			c-0.2,0.7-0.5,1.3-1,1.8C74.6,37.7,74.1,38.2,73.4,38.6z M67.6,29.9H65v7.5h2.6c0.8,0,1.5-0.1,2.1-0.3c0.6-0.2,1.1-0.5,1.4-0.8
			c0.4-0.3,0.7-0.8,0.8-1.2c0.2-0.5,0.3-1,0.3-1.6c0-1.1-0.4-2-1.1-2.6C70.3,30.2,69.2,29.9,67.6,29.9z"/>
		<polygon class="st8" points="48.2,54.5 48.2,64.1 58.4,64.1 58.4,64.9 48.2,64.9 48.2,74.9 60.3,74.9 60.3,75.6 47.4,75.6 
			47.4,53.7 60.3,53.7 60.3,54.5 		"/>
		<polygon class="st7" points="37,0.3 54.7,0.3 54.7,3.7 48,3.7 48,22.7 43.8,22.7 43.8,3.7 37,3.7 		"/>
		<path class="st7" d="M41.7,33.2l-2.7,7.4h7.2l-2.7-7.5c-0.1-0.3-0.3-0.7-0.4-1.2c-0.2-0.4-0.3-0.9-0.4-1.5c-0.2,0.5-0.3,1-0.4,1.5
			C42,32.5,41.8,32.9,41.7,33.2z M31.6,49.1l8.8-22.5h4.3l8.8,22.5h-3.2c-0.4,0-0.7-0.1-0.9-0.3c-0.2-0.2-0.4-0.4-0.5-0.7l-1.7-4.6
			h-9.3l-1.7,4.6c-0.1,0.2-0.2,0.5-0.5,0.7c-0.2,0.2-0.5,0.3-0.9,0.3H31.6z"/>
		<rect x="34.8" y="53.7" class="st8" width="0.9" height="21.8"/>
		<path class="st7" d="M26.4,22.4c-1,0.4-2.1,0.6-3.3,0.6c-0.7,0-1.4-0.1-2.1-0.2c-0.7-0.1-1.4-0.3-2-0.6c-0.6-0.3-1.2-0.6-1.8-0.9
			c-0.6-0.4-1-0.8-1.5-1.2l1.2-2c0.1-0.2,0.3-0.3,0.4-0.4c0.2-0.1,0.3-0.2,0.5-0.2c0.3,0,0.5,0.1,0.8,0.3c0.3,0.2,0.7,0.4,1.1,0.7
			c0.4,0.3,0.9,0.5,1.4,0.7c0.6,0.2,1.2,0.3,2,0.3c1.2,0,2.1-0.3,2.8-0.8c0.7-0.6,1-1.4,1-2.4c0-0.6-0.2-1.1-0.4-1.4
			c-0.3-0.4-0.7-0.7-1.2-0.9c-0.5-0.3-1-0.5-1.7-0.6c-0.6-0.2-1.2-0.4-1.9-0.6c-0.6-0.2-1.3-0.5-1.9-0.7c-0.6-0.3-1.2-0.7-1.7-1.1
			c-0.5-0.5-0.9-1-1.2-1.7c-0.3-0.7-0.4-1.6-0.4-2.6c0-0.8,0.2-1.6,0.5-2.4c0.3-0.8,0.8-1.5,1.4-2.1c0.6-0.6,1.4-1.1,2.3-1.4
			c0.9-0.4,2-0.5,3.1-0.5c1.3,0,2.5,0.2,3.7,0.6s2.1,1,2.9,1.7l-1,2c-0.1,0.2-0.3,0.4-0.4,0.5C28.9,4.9,28.7,5,28.5,5
			c-0.2,0-0.4-0.1-0.7-0.2c-0.3-0.2-0.6-0.3-0.9-0.5c-0.4-0.2-0.8-0.4-1.2-0.5c-0.5-0.2-1-0.2-1.7-0.2c-0.6,0-1.1,0.1-1.5,0.2
			C22,3.8,21.7,4,21.4,4.2c-0.3,0.2-0.5,0.5-0.7,0.9c-0.1,0.3-0.2,0.7-0.2,1.1c0,0.5,0.2,1,0.4,1.3s0.7,0.7,1.2,0.9
			c0.5,0.3,1,0.5,1.7,0.7c0.6,0.2,1.3,0.4,1.9,0.6c0.7,0.2,1.3,0.5,1.9,0.8c0.6,0.3,1.2,0.7,1.7,1.1c0.5,0.5,0.9,1,1.2,1.7
			c0.3,0.7,0.4,1.4,0.4,2.4c0,1-0.2,2-0.5,2.8c-0.4,0.9-0.9,1.7-1.5,2.3C28.2,21.5,27.3,22,26.4,22.4z"/>
		<path class="st8" d="M16.1,75.6L7,53.7h0.7c0.2,0,0.3,0.1,0.3,0.3l8.1,19.6c0.1,0.2,0.1,0.3,0.2,0.5c0.1,0.2,0.1,0.4,0.2,0.5
			c0.1-0.4,0.2-0.7,0.3-1L24.9,54c0.1-0.2,0.2-0.3,0.4-0.3h0.7l-9.1,21.8H16.1z"/>
		<path class="st7" d="M11.1,46.2c-0.3-0.2-0.5-0.4-0.6-0.7L3.6,32.7c0,0.3,0.1,0.7,0.1,1c0,0.3,0,0.6,0,0.9v14.5H0V26.7h3.2
			c0.2,0,0.3,0,0.5,0c0.1,0,0.3,0,0.4,0.1c0.1,0,0.2,0.1,0.3,0.2c0.1,0.1,0.2,0.2,0.3,0.4l6.7,12.5c0.2,0.3,0.3,0.7,0.5,1
			c0.2,0.4,0.3,0.7,0.4,1.1c0.2-0.4,0.3-0.7,0.5-1.1c0.2-0.4,0.3-0.7,0.5-1l6.6-12.4c0.1-0.2,0.2-0.3,0.3-0.4
			c0.1-0.1,0.2-0.2,0.3-0.2c0.1,0,0.2-0.1,0.4-0.1c0.1,0,0.3,0,0.5,0h3.2v22.5h-3.7V34.6c0-0.3,0-0.6,0-0.9c0-0.3,0-0.6,0.1-1
			L14,45.5c-0.2,0.3-0.4,0.5-0.6,0.7c-0.3,0.2-0.5,0.2-0.9,0.2h-0.6C11.6,46.4,11.3,46.3,11.1,46.2z"/>
	</g>
	<path class="st8" d="M97.5,54.5c-0.1-0.2-0.2-0.4-0.3-0.5c-0.2-0.2-0.5-0.3-0.8-0.2c-0.1,0-0.1,0-0.2,0c-0.5,0.2-0.8,0.7-0.7,1.3
		c0.1,0.2,0.1,0.3,0.2,0.4c-1.4,4.7-5.8,18.9-5.8,19C89.9,74.1,83.1,58,83.1,58c-0.1-0.2-0.2-0.3-0.4-0.3h-0.2
		c-0.2,0-0.3,0.1-0.4,0.3c0,0-7.1,16.2-7.1,16.4c-0.1-0.4-0.2-0.6-0.3-0.9l-2.2-7.3c-0.1-0.2-0.2-0.3-0.3-0.3h-0.7l3.1,9.7h0.7
		c0,0,7.2-16.3,7.2-16.5c0,0.2,7,16.5,7,16.5h0.8l6.3-19.8c0.1,0,0.1,0,0.2,0C97.3,55.6,97.6,55,97.5,54.5z"/>
</g>
</svg>
