<?xml version="1.0" encoding="utf-8"?>
<!-- Generator: Adobe Illustrator 22.0.1, SVG Export Plug-In . SVG Version: 6.00 Build 0)  -->
<svg version="1.1" id="Layer_1" xmlns="http://www.w3.org/2000/svg" xmlns:xlink="http://www.w3.org/1999/xlink" x="0px" y="0px"
	 viewBox="0 0 277.6 15" style="enable-background:new 0 0 277.6 15;" xml:space="preserve">
<style type="text/css">
	.st0{clip-path:url(#SVGID_2_);}
	.st1{clip-path:url(#SVGID_6_);}
	.st2{clip-path:url(#SVGID_8_);fill:#CCCCCC;}
	.st3{clip-path:url(#SVGID_10_);}
	.st4{fill:#474747;}
	.st5{fill:#FFFFFF;}
	.st6{fill:#EFCD60;}
	.st7{fill:#FAFAFA;}
	.st8{fill:#97FFDC;}
	.st9{fill:#B0C466;}
</style>
<g>
	<g id="XMLID_22_">
		<polygon class="st7" points="172.5,0.2 184.1,0.2 184.1,2.4 179.7,2.4 179.7,14.8 177,14.8 177,2.4 172.5,2.4 		"/>
		<polygon class="st7" points="161.7,6.4 166.9,6.4 166.9,8.5 161.7,8.5 161.7,12.7 168.2,12.7 168.2,14.8 159,14.8 159,0.2 
			168.2,0.2 168.2,2.3 161.7,2.3 		"/>
		<path class="st7" d="M145.8,6.2c0.2-0.1,0.3-0.2,0.4-0.3l4-5.1c0.2-0.2,0.3-0.4,0.5-0.5c0.2-0.1,0.4-0.1,0.7-0.1h2.4l-4.9,6.1
			c-0.2,0.2-0.3,0.3-0.4,0.5c-0.1,0.1-0.3,0.2-0.5,0.3c0.2,0.1,0.4,0.2,0.6,0.3c0.2,0.1,0.4,0.3,0.5,0.6l5.1,6.9h-2.4
			c-0.3,0-0.6,0-0.7-0.1c-0.2-0.1-0.3-0.2-0.4-0.4l-4.2-5.4c-0.1-0.2-0.3-0.3-0.5-0.4c-0.2-0.1-0.4-0.1-0.7-0.1h-0.9v6.5h-2.7V0.2
			h2.7v6.2h0.6C145.4,6.3,145.6,6.3,145.8,6.2z"/>
		<path class="st7" d="M133.5,7.9c-0.4,0.3-0.9,0.5-1.4,0.6c0.3,0.2,0.6,0.5,0.9,0.8l3.7,5.4h-2.5c-0.2,0-0.4,0-0.6-0.1
			c-0.2-0.1-0.3-0.2-0.4-0.4l-3.1-4.7c-0.1-0.2-0.2-0.3-0.4-0.4c-0.1-0.1-0.3-0.1-0.6-0.1H128v5.7h-2.7V0.2h4.5c1,0,1.9,0.1,2.6,0.3
			c0.7,0.2,1.3,0.5,1.8,0.9c0.5,0.4,0.8,0.8,1,1.3s0.3,1.1,0.3,1.7c0,0.5-0.1,1-0.2,1.4c-0.1,0.4-0.4,0.8-0.6,1.2
			C134.3,7.4,133.9,7.7,133.5,7.9z M131.1,7c0.4-0.1,0.7-0.3,0.9-0.5c0.2-0.2,0.4-0.5,0.6-0.8c0.1-0.3,0.2-0.7,0.2-1
			c0-0.7-0.2-1.3-0.7-1.7c-0.5-0.4-1.2-0.6-2.3-0.6H128v4.9h1.7C130.2,7.2,130.7,7.1,131.1,7z"/>
		<path class="st7" d="M111,9.3h4.7l-1.8-4.9c-0.1-0.2-0.2-0.5-0.3-0.8c-0.1-0.3-0.2-0.6-0.3-1c-0.1,0.3-0.2,0.7-0.3,1
			c-0.1,0.3-0.2,0.6-0.3,0.8L111,9.3z M114.7,0.2l5.8,14.7h-2.1c-0.2,0-0.4-0.1-0.6-0.2c-0.2-0.1-0.3-0.3-0.3-0.4l-1.1-3h-6.1
			l-1.1,3c-0.1,0.2-0.2,0.3-0.3,0.4c-0.2,0.1-0.4,0.2-0.6,0.2h-2.1L112,0.2H114.7z"/>
		<path class="st7" d="M99.1,5.4c0-0.2,0-0.4,0-0.6c0-0.2,0-0.4,0-0.6l-4.4,8.3c-0.1,0.2-0.2,0.3-0.4,0.4c-0.2,0.1-0.4,0.2-0.6,0.2
			h-0.4c-0.2,0-0.4-0.1-0.6-0.2c-0.2-0.1-0.3-0.3-0.4-0.4l-4.5-8.4c0,0.2,0,0.4,0,0.7c0,0.2,0,0.4,0,0.6v9.5h-2.4V0.2h2.1
			c0.1,0,0.2,0,0.3,0c0.1,0,0.2,0,0.2,0c0.1,0,0.1,0.1,0.2,0.1c0.1,0.1,0.1,0.1,0.2,0.2l4.4,8.1c0.1,0.2,0.2,0.4,0.3,0.7
			c0.1,0.2,0.2,0.5,0.3,0.7c0.1-0.2,0.2-0.5,0.3-0.7C93.9,9.2,94,9,94.2,8.7l4.3-8.1c0-0.1,0.1-0.2,0.2-0.2c0.1-0.1,0.1-0.1,0.2-0.1
			c0.1,0,0.2,0,0.2,0c0.1,0,0.2,0,0.3,0h2.1v14.7h-2.4V5.4z"/>
		<path class="st7" d="M69.3,6.3c0.3,0,0.5,0,0.6-0.1c0.2-0.1,0.3-0.2,0.4-0.3l4.1-5.1c0.2-0.2,0.3-0.4,0.5-0.5
			c0.2-0.1,0.4-0.1,0.7-0.1H78L73,6.3c-0.2,0.2-0.3,0.3-0.5,0.5c-0.1,0.1-0.3,0.2-0.5,0.3c0.2,0.1,0.4,0.2,0.6,0.3
			c0.2,0.1,0.4,0.3,0.5,0.6l5.1,6.9h-2.4c-0.3,0-0.6,0-0.7-0.1c-0.2-0.1-0.3-0.2-0.4-0.4l-4.2-5.4c-0.1-0.2-0.3-0.3-0.5-0.4
			c-0.2-0.1-0.4-0.1-0.7-0.1h-0.9v6.5h-2.7V0.1h2.7v6.2H69.3z"/>
		<path class="st7" d="M58,12.1c0.2-0.1,0.5-0.3,0.7-0.5c0.1-0.1,0.1-0.1,0.2-0.1c0.1,0,0.2,0,0.2,0c0.1,0,0.3,0.1,0.4,0.2l1.1,1.2
			c-0.6,0.7-1.3,1.3-2.2,1.7c-0.9,0.4-1.9,0.6-3.1,0.6c-1.1,0-2.1-0.2-2.9-0.6c-0.9-0.4-1.6-0.9-2.2-1.5c-0.6-0.7-1.1-1.5-1.4-2.4
			c-0.3-0.9-0.5-1.9-0.5-3c0-1.1,0.2-2.1,0.6-3c0.4-0.9,0.9-1.7,1.5-2.4c0.7-0.7,1.5-1.2,2.4-1.5S54.6,0,55.7,0c1.1,0,2,0.2,2.9,0.5
			c0.8,0.4,1.5,0.8,2.1,1.4l-0.9,1.3c-0.1,0.1-0.1,0.2-0.2,0.2c-0.1,0.1-0.2,0.1-0.3,0.1c-0.2,0-0.3-0.1-0.5-0.2
			c-0.2-0.1-0.4-0.3-0.6-0.4c-0.2-0.1-0.6-0.3-0.9-0.4c-0.4-0.1-0.9-0.2-1.5-0.2c-0.7,0-1.3,0.1-1.9,0.4c-0.6,0.2-1.1,0.6-1.5,1
			c-0.4,0.4-0.7,1-1,1.6C51.1,6,51,6.7,51,7.5c0,0.8,0.1,1.6,0.3,2.2c0.2,0.6,0.6,1.2,1,1.6c0.4,0.4,0.9,0.8,1.4,1
			c0.5,0.2,1.1,0.4,1.8,0.4c0.4,0,0.7,0,1-0.1c0.3,0,0.6-0.1,0.8-0.2S57.7,12.2,58,12.1z"/>
		<path class="st7" d="M36.3,2.3c-0.7,0-1.4,0.1-1.9,0.4c-0.6,0.2-1.1,0.6-1.5,1c-0.4,0.5-0.7,1-0.9,1.6c-0.2,0.6-0.3,1.4-0.3,2.2
			c0,0.8,0.1,1.5,0.3,2.2c0.2,0.6,0.5,1.2,0.9,1.6c0.4,0.4,0.9,0.8,1.5,1c0.6,0.2,1.2,0.4,1.9,0.4c0.7,0,1.4-0.1,1.9-0.4
			c0.6-0.2,1.1-0.6,1.5-1c0.4-0.4,0.7-1,0.9-1.6c0.2-0.6,0.3-1.4,0.3-2.2c0-0.8-0.1-1.5-0.3-2.2c-0.2-0.6-0.5-1.2-0.9-1.6
			c-0.4-0.4-0.9-0.8-1.5-1C37.6,2.4,37,2.3,36.3,2.3z M36.3,15c-1.1,0-2.1-0.2-3-0.6c-0.9-0.4-1.7-0.9-2.4-1.6
			c-0.6-0.7-1.2-1.5-1.5-2.4c-0.4-0.9-0.5-1.9-0.5-3s0.2-2.1,0.5-3c0.4-0.9,0.9-1.7,1.5-2.4c0.7-0.7,1.4-1.2,2.4-1.6
			c0.9-0.4,1.9-0.6,3-0.6s2.1,0.2,3,0.6c0.9,0.4,1.7,0.9,2.3,1.6s1.2,1.5,1.5,2.4c0.4,0.9,0.5,1.9,0.5,3s-0.2,2.1-0.5,3
			c-0.4,0.9-0.9,1.7-1.5,2.4c-0.6,0.7-1.4,1.2-2.3,1.6C38.4,14.8,37.4,15,36.3,15z"/>
		<polygon class="st7" points="21.1,2.4 21.1,14.8 18.4,14.8 18.4,2.4 13.9,2.4 13.9,0.2 25.5,0.2 25.5,2.4 		"/>
		<path class="st7" d="M5.4,2.2c-0.4,0-0.7,0-1,0.1C4.1,2.5,3.9,2.6,3.7,2.7C3.5,2.9,3.4,3.1,3.3,3.3C3.2,3.6,3.1,3.8,3.1,4.1
			c0,0.3,0.1,0.6,0.3,0.9c0.2,0.2,0.4,0.4,0.8,0.6C4.5,5.7,4.9,5.8,5.3,6c0.4,0.1,0.8,0.3,1.2,0.4C7,6.5,7.4,6.7,7.8,6.9
			c0.4,0.2,0.8,0.4,1.1,0.7c0.3,0.3,0.6,0.7,0.8,1.1c0.2,0.4,0.3,0.9,0.3,1.5c0,0.7-0.1,1.3-0.3,1.9c-0.2,0.6-0.6,1.1-1,1.5
			c-0.4,0.4-1,0.8-1.6,1C6.4,14.9,5.6,15,4.8,15c-0.5,0-0.9,0-1.4-0.1s-0.9-0.2-1.3-0.4c-0.4-0.2-0.8-0.4-1.2-0.6s-0.7-0.5-1-0.8
			l0.8-1.3c0.1-0.1,0.2-0.2,0.3-0.2c0.1-0.1,0.2-0.1,0.3-0.1c0.2,0,0.4,0.1,0.6,0.2s0.4,0.3,0.7,0.5c0.3,0.2,0.6,0.3,0.9,0.5
			c0.4,0.1,0.8,0.2,1.3,0.2c0.8,0,1.4-0.2,1.8-0.6c0.4-0.4,0.6-0.9,0.6-1.6c0-0.4-0.1-0.7-0.3-0.9C6.9,9.4,6.6,9.2,6.3,9.1
			C6,8.9,5.6,8.8,5.2,8.6C4.8,8.5,4.4,8.4,4,8.3C3.5,8.1,3.1,8,2.7,7.8C2.3,7.6,2,7.4,1.6,7C1.3,6.7,1.1,6.4,0.9,5.9
			c-0.2-0.5-0.3-1-0.3-1.7c0-0.5,0.1-1.1,0.3-1.6s0.5-1,0.9-1.3s0.9-0.7,1.5-0.9C3.9,0.1,4.6,0,5.4,0c0.9,0,1.7,0.1,2.4,0.4
			c0.7,0.3,1.3,0.6,1.9,1.1L9,2.8C8.9,3,8.8,3.1,8.7,3.1C8.6,3.2,8.5,3.2,8.4,3.2c-0.1,0-0.3-0.1-0.5-0.2C7.7,3,7.5,2.9,7.3,2.7
			C7.1,2.6,6.8,2.5,6.5,2.4C6.2,2.3,5.8,2.2,5.4,2.2z"/>
	</g>
	<g>
		<path class="st8" d="M272.3,8.2c-0.1-0.1-0.2-0.2-0.4-0.3c0.6,0,1.2-0.2,1.8-0.4c0.5-0.2,1-0.5,1.4-0.8s0.7-0.7,0.9-1.2
			c0.2-0.5,0.3-1,0.3-1.5c0-1.2-0.4-2.1-1.2-2.7c-0.8-0.6-2-0.9-3.5-0.9h-3.4v14.3h0.6V7.9h2.1c0.1,0,0.3,0,0.4,0
			c0.1,0,0.2,0,0.3,0.1c0.1,0,0.1,0.1,0.2,0.1c0.1,0,0.1,0.1,0.2,0.2l5,6.2c0.1,0.1,0.1,0.1,0.2,0.1c0.1,0,0.1,0,0.2,0h0.5
			L272.3,8.2z M271.4,7.5h-2.7V0.8h2.9c1.4,0,2.4,0.3,3.1,0.8c0.7,0.5,1.1,1.3,1.1,2.4c0,0.5-0.1,1-0.3,1.4
			c-0.2,0.4-0.5,0.8-0.9,1.1c-0.4,0.3-0.8,0.5-1.4,0.7C272.7,7.4,272.1,7.5,271.4,7.5z"/>
		<polygon class="st8" points="253.7,7.6 260.3,7.6 260.3,7.2 253.7,7.2 253.7,0.9 261.6,0.9 261.6,0.4 253.2,0.4 253.2,14.6 
			261.6,14.6 261.6,14.2 253.7,14.2 		"/>
		<path class="st8" d="M247.1,0.6c-0.1-0.1-0.3-0.2-0.5-0.2c0,0-0.1,0-0.1,0c-0.3,0.1-0.6,0.5-0.4,0.8c0,0.1,0.1,0.2,0.2,0.3
			c-0.9,3.1-3.8,12.3-3.8,12.4c0-0.3-4.5-10.8-4.5-10.8c0-0.1-0.1-0.2-0.2-0.2h-0.1c-0.1,0-0.2,0.1-0.2,0.2c0,0-4.6,10.6-4.6,10.7
			c0-0.3-0.1-0.4-0.2-0.6L231,8.5c0-0.1-0.1-0.2-0.2-0.2h-0.5l2,6.4h0.5c0,0,4.7-10.6,4.7-10.8c0,0.1,4.6,10.8,4.6,10.8h0.5
			l4.1-12.9c0,0,0.1,0,0.1,0c0.4-0.1,0.6-0.5,0.4-0.8C247.3,0.7,247.2,0.6,247.1,0.6z"/>
		<polygon class="st8" points="215.1,7.6 221.8,7.6 221.8,7.2 215.1,7.2 215.1,0.9 223,0.9 223,0.4 214.6,0.4 214.6,14.6 223,14.6 
			223,14.2 215.1,14.2 		"/>
		<rect x="206.3" y="0.4" class="st8" width="0.6" height="14.3"/>
		<path class="st8" d="M199.9,0.6l-5.3,12.8c-0.1,0.2-0.2,0.4-0.2,0.7c0-0.1-0.1-0.2-0.1-0.3c0-0.1-0.1-0.2-0.1-0.3l-5.3-12.8
			c0-0.1-0.1-0.2-0.2-0.2h-0.4l5.9,14.3h0.5l5.9-14.3h-0.4C200,0.4,199.9,0.4,199.9,0.6z"/>
	</g>
</g>
</svg>
